# xmcd
#
# Track frame offsets: 
#        150
#        23735
#        41726
#        61787
#        79359
#        94422
#        114117
#        136027
#        150524
#        166204
#        183588
#        210957
#        232774
#        249201
#        265228
#        279198
#        293883
#        309266
#        323197
#        339654
#
# Disc length: 4720 seconds
#
# Revision: 2
# Processed by: cddbd v1.5.2PL0 Copyright (c) Steve Scherf et al.
# Submitted via: ExactAudioCopy v1.3
#
DISCID=01126e14
DTITLE=Various Artists (Priester) - Fox Box - Die Deutsche Vol.04
DYEAR=2004
DGENRE=Discofox
TTITLE0=Oliver Frank - Italo-Medley
TTITLE1=Michael Wendler - Unsterblich (XXL Mix)
TTITLE2=Kim Hölter - Du bist sowiso mein Typ (Maxi Version)
TTITLE3=Mike Bauhaus - Comment Ca Va
TTITLE4=Leo König - Auf die Liebe (Disco Fox Mix)
TTITLE5=Jeannine - Samba De Luna (Extendet Remix 2003)
TTITLE6=Nico Gemba - Du bist nicht von dieser Welt
TTITLE7=Andreas Köhler Feat. DJ Untreu - Prinzessin Jessica
TTITLE8=Vivian Lindt - Du bist wie der Sommer
TTITLE9=Ronny Krappmann - Schau in Dein Herz
TTITLE10=Gerd Christian - Ich träum' von Dir (Maxi Club Mix)
TTITLE11=Leonard - Du bist das Leben (Club Mix)
TTITLE12=Playa Rouge - Alles... find' ich bei Dir 
TTITLE13=Oliver Hardt - Hallo, Isabel
TTITLE14=Andreas Zaron - Sonne über Deutschland
TTITLE15=Xandra Haag - Du bist das Ziel
TTITLE16=Ingrid Peters - Du bist einfach Wahnsinn
TTITLE17=Jürgen Renfordt - Sie ist wie der April
TTITLE18=Manfred Peter - Engel in Not
TTITLE19=Bea Larson - Die Sprache der Liebe
EXTD=
EXTT0=
EXTT1=
EXTT2=
EXTT3=
EXTT4=
EXTT5=
EXTT6=
EXTT7=
EXTT8=
EXTT9=
EXTT10=
EXTT11=
EXTT12=
EXTT13=
EXTT14=
EXTT15=
EXTT16=
EXTT17=
EXTT18=
EXTT19=
PLAYORDER=
